<svg width="18" height="18" viewBox="0 0 18 18" fill="none" xmlns="http://www.w3.org/2000/svg">
<g clip-path="url(#clip0)">
<path d="M15.1875 0H2.8125C1.25919 0 0 1.25919 0 2.8125V11.8125C0 13.3658 1.25919 14.625 2.8125 14.625H13.8319L17.0381 17.8369C17.1443 17.9422 17.288 18.0009 17.4375 18C17.7482 18 18 17.7482 18 17.4375V2.8125C18 1.25919 16.7408 0 15.1875 0ZM16.875 16.0819L14.4619 13.6631C14.3557 13.5578 14.212 13.4991 14.0625 13.5H2.8125C1.88051 13.5 1.125 12.7445 1.125 11.8125V2.8125C1.125 1.88051 1.88051 1.125 2.8125 1.125H15.1875C16.1195 1.125 16.875 1.88051 16.875 2.8125V16.0819Z" fill="white"/>
<path d="M9 8.4375C9.62132 8.4375 10.125 7.93382 10.125 7.3125C10.125 6.69118 9.62132 6.1875 9 6.1875C8.37868 6.1875 7.875 6.69118 7.875 7.3125C7.875 7.93382 8.37868 8.4375 9 8.4375Z" fill="white"/>
<path d="M12.9375 8.4375C13.5588 8.4375 14.0625 7.93382 14.0625 7.3125C14.0625 6.69118 13.5588 6.1875 12.9375 6.1875C12.3162 6.1875 11.8125 6.69118 11.8125 7.3125C11.8125 7.93382 12.3162 8.4375 12.9375 8.4375Z" fill="white"/>
<path d="M5.0625 8.4375C5.68382 8.4375 6.1875 7.93382 6.1875 7.3125C6.1875 6.69118 5.68382 6.1875 5.0625 6.1875C4.44118 6.1875 3.9375 6.69118 3.9375 7.3125C3.9375 7.93382 4.44118 8.4375 5.0625 8.4375Z" fill="white"/>
</g>
<defs>
<clipPath id="clip0">
<rect width="18" height="18" fill="white"/>
</clipPath>
</defs>
</svg>
