<svg width="22" height="22" viewBox="0 0 22 22" fill="none" xmlns="http://www.w3.org/2000/svg">
<path d="M19.25 11C19.25 13.188 18.3808 15.2865 16.8336 16.8336C15.2865 18.3808 13.188 19.25 11 19.25M19.25 11C19.25 8.81196 18.3808 6.71354 16.8336 5.16637C15.2865 3.61919 13.188 2.75 11 2.75M19.25 11H2.75M11 19.25C8.81196 19.25 6.71354 18.3808 5.16637 16.8336C3.61919 15.2865 2.75 13.188 2.75 11M11 19.25C12.5189 19.25 13.75 15.5558 13.75 11C13.75 6.44417 12.5189 2.75 11 2.75M11 19.25C9.48108 19.25 8.25 15.5558 8.25 11C8.25 6.44417 9.48108 2.75 11 2.75M11 2.75C8.81196 2.75 6.71354 3.61919 5.16637 5.16637C3.61919 6.71354 2.75 8.81196 2.75 11" stroke="white" stroke-width="2" stroke-linecap="round" stroke-linejoin="round"/>
</svg>
