<svg width="22" height="22" viewBox="0 0 22 22" fill="none" xmlns="http://www.w3.org/2000/svg">
<path d="M12.2158 10.9999L21.7483 1.46723C22.0839 1.13165 22.0839 0.587255 21.7483 0.251681C21.4127 -0.0838936 20.8683 -0.0838936 20.5327 0.251681L11.0002 9.78483L1.46726 0.252111C1.13168 -0.0834639 0.58727 -0.0834639 0.251687 0.252111C-0.0838957 0.587685 -0.0838957 1.13208 0.251687 1.46723L9.78507 10.9999L0.252117 20.5327C-0.083466 20.8682 -0.083466 21.4126 0.252117 21.7482C0.419693 21.9158 0.639691 22 0.859689 22C1.07969 22 1.29968 21.9162 1.46726 21.7482L11.0002 12.2155L20.5332 21.7482C20.7007 21.9158 20.9207 22 21.1407 22C21.3607 22 21.5807 21.9162 21.7483 21.7482C22.0839 21.4126 22.0839 20.8682 21.7483 20.5327L12.2158 10.9999Z" fill="black"/>
</svg>
