<svg width="28" height="27" viewBox="0 0 28 27" fill="none" xmlns="http://www.w3.org/2000/svg">
<path d="M24.7188 2.10938H23.4062V0H21.2188V2.10938H6.78125V0H4.59375V2.10938H3.28125C1.47197 2.10938 0 3.52877 0 5.27344V23.8359C0 25.5806 1.47197 27 3.28125 27H24.7188C26.528 27 28 25.5806 28 23.8359V5.27344C28 3.52877 26.528 2.10938 24.7188 2.10938ZM25.8125 23.8359C25.8125 24.4175 25.3218 24.8906 24.7188 24.8906H3.28125C2.67816 24.8906 2.1875 24.4175 2.1875 23.8359V9.91406H25.8125V23.8359ZM25.8125 7.80469H2.1875V5.27344C2.1875 4.69188 2.67816 4.21875 3.28125 4.21875H4.59375V6.32812H6.78125V4.21875H21.2188V6.32812H23.4062V4.21875H24.7188C25.3218 4.21875 25.8125 4.69188 25.8125 5.27344V7.80469Z" fill="#324C75"/>
<path d="M6.34375 12.1289H4.15625V14.2383H6.34375V12.1289Z" fill="#324C75"/>
<path d="M10.7188 12.1289H8.53125V14.2383H10.7188V12.1289Z" fill="#324C75"/>
<path d="M15.0938 12.1289H12.9062V14.2383H15.0938V12.1289Z" fill="#324C75"/>
<path d="M19.4688 12.1289H17.2812V14.2383H19.4688V12.1289Z" fill="#324C75"/>
<path d="M23.8438 12.1289H21.6562V14.2383H23.8438V12.1289Z" fill="#324C75"/>
<path d="M6.34375 16.3477H4.15625V18.457H6.34375V16.3477Z" fill="#324C75"/>
<path d="M10.7188 16.3477H8.53125V18.457H10.7188V16.3477Z" fill="#324C75"/>
<path d="M15.0938 16.3477H12.9062V18.457H15.0938V16.3477Z" fill="#324C75"/>
<path d="M19.4688 16.3477H17.2812V18.457H19.4688V16.3477Z" fill="#324C75"/>
<path d="M6.34375 20.5664H4.15625V22.6758H6.34375V20.5664Z" fill="#324C75"/>
<path d="M10.7188 20.5664H8.53125V22.6758H10.7188V20.5664Z" fill="#324C75"/>
<path d="M15.0938 20.5664H12.9062V22.6758H15.0938V20.5664Z" fill="#324C75"/>
<path d="M19.4688 20.5664H17.2812V22.6758H19.4688V20.5664Z" fill="#324C75"/>
<path d="M23.8438 16.3477H21.6562V18.457H23.8438V16.3477Z" fill="#324C75"/>
</svg>
