<svg width="178" height="48" viewBox="0 0 178 48" fill="none" xmlns="http://www.w3.org/2000/svg">
<path d="M5.96912 0V5.82178" stroke="white" stroke-width="1.062" stroke-miterlimit="10"/>
<path d="M6.32733 41.5842V48" stroke="white" stroke-width="1.062" stroke-miterlimit="10"/>
<path d="M22.2053 0V22.3366" stroke="white" stroke-width="1.062" stroke-miterlimit="10"/>
<path d="M22.2053 42.4158V47.8812" stroke="white" stroke-width="1.062" stroke-miterlimit="10"/>
<path d="M2.50704 4.75247H8.47619C9.90879 4.75247 10.9832 5.94059 10.9832 7.24752V38.9703C10.9832 40.396 9.7894 41.4653 8.47619 41.4653H2.50704C1.19383 41.5841 0 40.396 0 39.0891V7.36633C0 5.94059 1.19383 4.75247 2.50704 4.75247Z" fill="white"/>
<path d="M18.385 20.7921H24.3541C25.7867 20.7921 26.8612 21.9802 26.8612 23.2871V40.6337C26.8612 42.0594 25.6673 43.1287 24.3541 43.1287H18.385C16.9524 43.1287 15.8779 41.9406 15.8779 40.6337V23.2871C15.8779 21.8614 16.9524 20.7921 18.385 20.7921Z" fill="white"/>
<path d="M50.9765 3.92081L50.499 7.72279H45.9624V22.8119H40.829V7.8416H36.0536V3.92081H50.9765Z" fill="white"/>
<path d="M64.3474 15.9208H62.9148V22.9307H57.7814V3.92081H64.4668C67.2126 3.92081 69.1228 4.39605 70.436 5.34655C71.7492 6.29704 72.4655 7.8416 72.4655 9.74259C72.4655 10.9307 72.2267 12 71.6298 12.7129C71.0329 13.4258 70.1972 14.2574 69.0034 14.8515L73.7787 22.8119H68.0483L64.3474 15.9208ZM62.9148 12.4753H64.5862C66.3769 12.4753 67.2126 11.6436 67.2126 9.8614C67.2126 9.02972 66.9739 8.43566 66.4963 8.07922C66.0188 7.72279 65.3025 7.48516 64.3474 7.48516H62.9148V12.4753Z" fill="white"/>
<path d="M90.3729 22.9307L89.5372 19.0099H84.5231L83.6874 22.9307H78.4346L84.0456 3.92081H90.1341L95.7451 22.9307H90.3729ZM85.2394 15.4456H88.7015L87.0302 7.60398L85.2394 15.4456Z" fill="white"/>
<path d="M115.205 5.94059C116.995 7.24752 117.95 9.74257 117.95 13.3069C117.95 19.7228 114.727 22.8119 108.28 22.8119H102.192V3.80197H107.922C110.907 3.92078 113.414 4.63365 115.205 5.94059ZM107.325 7.48514V19.2475H108.638C110.071 19.2475 111.026 18.7723 111.742 17.9406C112.459 17.1089 112.697 15.5643 112.697 13.3069C112.697 11.7624 112.578 10.5742 112.22 9.74257C111.862 8.91088 111.384 8.31682 110.907 7.96039C110.31 7.60395 109.594 7.48514 108.638 7.48514H107.325Z" fill="white"/>
<path d="M130.724 3.92081V22.9307H125.591V3.92081H130.724Z" fill="white"/>
<path d="M154.243 22.9307H147.796L143.021 8.67328L143.14 9.26734C143.379 10.5743 143.498 11.7624 143.618 12.8317C143.737 13.901 143.737 15.2079 143.737 16.6337V23.0495H139.201V4.03962H145.408L150.423 18.4159C150.184 17.1089 150.064 15.802 149.945 14.7327C149.826 13.6634 149.826 12.3565 149.826 10.9307V3.92081H154.362V22.9307H154.243Z" fill="white"/>
<path d="M177.881 5.82179L175.373 8.43565C174.657 7.9604 174.06 7.60397 173.463 7.36634C172.866 7.12872 172.27 7.00991 171.553 7.00991C170.24 7.00991 169.046 7.48515 168.33 8.55446C167.494 9.62377 167.136 11.1683 167.136 13.4257C167.136 14.9703 167.255 16.2772 167.494 17.2277C167.733 18.1782 168.091 18.7723 168.688 19.2475C169.166 19.604 169.882 19.8416 170.718 19.8416C171.553 19.8416 172.27 19.7228 172.986 19.3663V15.4455H170.837L170.359 12H177.881V21.505C176.925 22.2178 175.732 22.6931 174.538 23.0495C173.344 23.4059 172.031 23.6436 170.837 23.6436C164.868 23.6436 161.883 20.3168 161.883 13.6634C161.883 11.6436 162.241 9.74258 163.077 8.31684C163.913 6.77228 164.987 5.70298 166.42 4.87129C167.852 4.03961 169.404 3.68317 171.195 3.68317C173.941 3.44555 176.09 4.27723 177.881 5.82179Z" fill="white"/>
<path d="M46.7981 28.8713C47.6337 29.1089 48.35 29.5841 49.1857 30.297L47.7531 31.9604C46.5593 31.0099 45.3655 30.5346 44.0523 30.5346C42.5003 30.5346 41.1871 31.1287 40.232 32.3168C39.2769 33.5049 38.7994 35.4059 38.7994 38.1386C38.7994 40.7525 39.2769 42.6535 40.232 43.8416C41.1871 45.0297 42.5003 45.7426 44.0523 45.7426C44.8879 45.7426 45.6042 45.6238 46.2011 45.3861C46.7981 45.1485 47.395 44.6733 48.1113 44.198L49.4245 45.8614C48.8276 46.4554 48.1113 46.9307 47.1562 47.4059C46.2011 47.7624 45.2461 48 44.0523 48C42.5003 48 41.1871 47.6436 39.9932 46.8119C38.7994 46.099 37.8443 44.9109 37.2474 43.4851C36.5311 42.0594 36.2924 40.2772 36.2924 38.1386C36.2924 36.1188 36.6505 34.3366 37.3668 32.7921C38.0831 31.3663 39.0382 30.1782 40.232 29.4653C41.4258 28.7525 42.739 28.396 44.1716 28.396C45.0073 28.396 45.9624 28.6336 46.7981 28.8713Z" fill="white"/>
<path d="M60.7658 28.7524V45.2673H68.5257L68.1676 47.5247H58.1394V28.7524H60.7658Z" fill="white"/>
<path d="M89.6566 41.5841C89.6566 42.8911 89.4178 43.9604 88.8209 44.9109C88.3434 45.8614 87.5077 46.5742 86.5526 47.1683C85.5976 47.7623 84.4037 48 82.9712 48C80.8223 48 79.2703 47.4059 78.0765 46.2178C76.8826 45.0297 76.4051 43.4851 76.4051 41.5841V28.7524H79.0315V41.3465C79.0315 42.7722 79.3897 43.8415 79.9866 44.6732C80.7029 45.3861 81.6579 45.7425 82.9712 45.7425C84.2844 45.7425 85.3588 45.3861 85.9557 44.6732C86.672 43.9604 86.9108 42.8911 86.9108 41.3465V28.7524H89.5372V41.5841H89.6566Z" fill="white"/>
<path d="M111.862 38.9703C112.697 39.6831 113.056 40.7524 113.056 42.1782C113.056 45.7425 110.549 47.5247 105.534 47.5247H100.282V28.7524H104.699C107.086 28.7524 108.877 29.1089 110.19 29.9406C111.504 30.7722 112.101 31.9604 112.101 33.5049C112.101 34.5742 111.742 35.5247 111.026 36.2376C110.31 36.9505 109.474 37.4257 108.519 37.6633C109.952 37.901 111.026 38.3762 111.862 38.9703ZM102.908 30.7722V36.7128H105.773C106.848 36.7128 107.803 36.4752 108.519 35.8812C109.235 35.4059 109.593 34.5742 109.593 33.6237C109.593 32.5544 109.235 31.7227 108.519 31.3663C107.803 30.8911 106.609 30.7722 105.176 30.7722H102.908ZM108.997 44.792C109.832 44.3168 110.19 43.4851 110.19 42.1782C110.19 40.9901 109.832 40.0396 108.997 39.4455C108.161 38.8515 107.206 38.6138 105.893 38.6138H102.789V45.3861H105.415C107.086 45.5049 108.28 45.2673 108.997 44.792Z" fill="white"/>
</svg>
