<svg width="164" height="44" viewBox="0 0 164 44" fill="none" xmlns="http://www.w3.org/2000/svg">
<g clip-path="url(#clip0)">
<path d="M5.49968 0V5.33663" stroke="#020203" stroke-width="1.062" stroke-miterlimit="10"/>
<path d="M5.82967 38.1188V44" stroke="#020203" stroke-width="1.062" stroke-miterlimit="10"/>
<path d="M20.4588 0V20.4752" stroke="#020203" stroke-width="1.062" stroke-miterlimit="10"/>
<path d="M20.4588 38.8812V43.8911" stroke="#020203" stroke-width="1.062" stroke-miterlimit="10"/>
<path d="M2.30986 4.35645H7.80952C9.12944 4.35645 10.1194 5.44555 10.1194 6.64357V35.7228C10.1194 37.0297 9.01945 38.0099 7.80952 38.0099H2.30986C1.09993 38.1188 0 37.0297 0 35.8317V6.75248C0 5.44555 1.09993 4.35645 2.30986 4.35645Z" fill="#020203"/>
<path d="M16.939 19.0594H22.4387C23.7586 19.0594 24.7485 20.1485 24.7485 21.3465V37.2475C24.7485 38.5544 23.6486 39.5346 22.4387 39.5346H16.939C15.6191 39.5346 14.6292 38.4455 14.6292 37.2475V21.3465C14.6292 20.0396 15.6191 19.0594 16.939 19.0594Z" fill="#020203"/>
<path d="M46.9671 3.59406L46.5271 7.0792H42.3474V20.9109H37.6177V7.18811H33.218V3.59406H46.9671Z" fill="black"/>
<path d="M59.2863 14.5941H57.9664V21.0198H53.2367V3.59406H59.3963C61.9262 3.59406 63.6861 4.0297 64.896 4.90099C66.1059 5.77227 66.7659 7.18811 66.7659 8.93069C66.7659 10.0198 66.5459 11 65.9959 11.6535C65.4459 12.3069 64.676 13.0693 63.5761 13.6139L67.9758 20.9109H62.6961L59.2863 14.5941ZM57.9664 11.4356H59.5063C61.1562 11.4356 61.9262 10.6733 61.9262 9.0396C61.9262 8.27722 61.7062 7.73267 61.2662 7.40594C60.8262 7.0792 60.1663 6.86138 59.2863 6.86138H57.9664V11.4356Z" fill="black"/>
<path d="M83.2649 21.0198L82.4949 17.4257H77.8752L77.1053 21.0198H72.2656L77.4353 3.59406H83.0449L88.2146 21.0198H83.2649ZM78.5352 14.1584H81.725L80.1851 6.97029L78.5352 14.1584Z" fill="black"/>
<path d="M106.143 5.44553C107.793 6.64355 108.673 8.93068 108.673 12.198C108.673 18.0792 105.703 20.9109 99.7638 20.9109H94.1542V3.48514H99.4339C102.184 3.59405 104.494 4.24751 106.143 5.44553ZM98.8839 6.86138V17.6436H100.094C101.414 17.6436 102.294 17.2079 102.954 16.4455C103.614 15.6832 103.834 14.2673 103.834 12.198C103.834 10.7822 103.724 9.69306 103.394 8.93068C103.064 8.16831 102.624 7.62375 102.184 7.29702C101.634 6.97029 100.974 6.86138 100.094 6.86138H98.8839Z" fill="black"/>
<path d="M120.443 3.59406V21.0198H115.713V3.59406H120.443Z" fill="black"/>
<path d="M142.111 21.0198H136.172L131.772 7.95049L131.882 8.49504C132.102 9.69306 132.212 10.7822 132.322 11.7624C132.432 12.7426 132.432 13.9406 132.432 15.2475V21.1287H128.252V3.70297H133.972L138.591 16.8812C138.371 15.6832 138.261 14.4851 138.151 13.5049C138.042 12.5247 138.042 11.3267 138.042 10.0198V3.59406H142.221V21.0198H142.111Z" fill="black"/>
<path d="M163.89 5.33664L161.58 7.73268C160.92 7.29703 160.37 6.9703 159.82 6.75248C159.27 6.53466 158.72 6.42575 158.06 6.42575C156.85 6.42575 155.75 6.86139 155.091 7.84159C154.321 8.82179 153.991 10.2376 153.991 12.3069C153.991 13.7228 154.101 14.9208 154.321 15.7921C154.541 16.6634 154.871 17.2079 155.42 17.6436C155.86 17.9703 156.52 18.1881 157.29 18.1881C158.06 18.1881 158.72 18.0792 159.38 17.7525V14.1584H157.4L156.96 11H163.89V19.7129C163.01 20.3663 161.91 20.802 160.81 21.1287C159.71 21.4554 158.5 21.6733 157.4 21.6733C151.901 21.6733 149.151 18.6238 149.151 12.5248C149.151 10.6733 149.481 8.9307 150.251 7.62377C151.021 6.20793 152.011 5.22773 153.331 4.46535C154.651 3.70297 156.08 3.37624 157.73 3.37624C160.26 3.15842 162.24 3.9208 163.89 5.33664Z" fill="black"/>
<path d="M43.1173 26.4653C43.8873 26.6832 44.5473 27.1188 45.3172 27.7723L43.9973 29.297C42.8974 28.4257 41.7974 27.9901 40.5875 27.9901C39.1576 27.9901 37.9477 28.5346 37.0677 29.6238C36.1878 30.7129 35.7478 32.4554 35.7478 34.9604C35.7478 37.3564 36.1878 39.099 37.0677 40.1881C37.9477 41.2772 39.1576 41.9307 40.5875 41.9307C41.3574 41.9307 42.0174 41.8218 42.5674 41.604C43.1173 41.3861 43.6673 40.9505 44.3273 40.5148L45.5372 42.0396C44.9872 42.5842 44.3273 43.0198 43.4473 43.4554C42.5674 43.7822 41.6874 44 40.5875 44C39.1576 44 37.9477 43.6733 36.8477 42.9109C35.7478 42.2574 34.8678 41.1683 34.3179 39.8614C33.6579 38.5544 33.4379 36.9208 33.4379 34.9604C33.4379 33.1089 33.7679 31.4752 34.4279 30.0594C35.0878 28.7525 35.9678 27.6634 37.0677 27.0099C38.1676 26.3564 39.3776 26.0297 40.6975 26.0297C41.4674 26.0297 42.3474 26.2475 43.1173 26.4653Z" fill="black"/>
<path d="M55.9866 26.3564V41.495H63.1362L62.8062 43.5643H53.5667V26.3564H55.9866Z" fill="black"/>
<path d="M82.6049 38.1188C82.6049 39.3168 82.385 40.297 81.835 41.1683C81.395 42.0396 80.6251 42.693 79.7451 43.2376C78.8652 43.7822 77.7652 44 76.4453 44C74.4654 44 73.0355 43.4554 71.9356 42.3663C70.8357 41.2772 70.3957 39.8614 70.3957 38.1188V26.3564H72.8155V37.901C72.8155 39.2079 73.1455 40.1881 73.6955 40.9505C74.3554 41.6039 75.2354 41.9307 76.4453 41.9307C77.6552 41.9307 78.6452 41.6039 79.1952 40.9505C79.8551 40.297 80.0751 39.3168 80.0751 37.901V26.3564H82.495V38.1188H82.6049Z" fill="black"/>
<path d="M103.064 35.7227C103.834 36.3762 104.164 37.3564 104.164 38.6633C104.164 41.9307 101.854 43.5643 97.2341 43.5643H92.3944V26.3564H96.4641C98.664 26.3564 100.314 26.6831 101.524 27.4455C102.734 28.2079 103.284 29.297 103.284 30.7128C103.284 31.693 102.954 32.5643 102.294 33.2178C101.634 33.8713 100.864 34.3069 99.9839 34.5247C101.304 34.7426 102.294 35.1782 103.064 35.7227ZM94.8142 28.2079V33.6534H97.4541C98.444 33.6534 99.324 33.4356 99.9839 32.8911C100.644 32.4554 100.974 31.693 100.974 30.8218C100.974 29.8416 100.644 29.0792 99.9839 28.7525C99.324 28.3168 98.224 28.2079 96.9041 28.2079H94.8142ZM100.424 41.0594C101.194 40.6237 101.524 39.8614 101.524 38.6633C101.524 37.5742 101.194 36.7029 100.424 36.1584C99.6539 35.6138 98.774 35.396 97.5641 35.396H94.7042V41.6039H97.1241C98.664 41.7128 99.7639 41.495 100.424 41.0594Z" fill="black"/>
</g>
<defs>
<clipPath id="clip0">
<rect width="164" height="44" fill="white"/>
</clipPath>
</defs>
</svg>
