<svg width="19" height="19" viewBox="0 0 19 19" fill="none" xmlns="http://www.w3.org/2000/svg">
<path d="M17.3301 2.82031H1.66992C0.747271 2.82031 0 3.57222 0 4.49023V14.5098C0 15.4332 0.752764 16.1797 1.66992 16.1797H17.3301C18.245 16.1797 19 15.4364 19 14.5098V4.49023C19 3.57386 18.2557 2.82031 17.3301 2.82031ZM17.0962 3.93359C16.755 4.27296 10.8835 10.1135 10.6808 10.3152C10.3654 10.6306 9.94605 10.8043 9.5 10.8043C9.05395 10.8043 8.63461 10.6306 8.31814 10.3141C8.1818 10.1785 2.37511 4.40243 1.90379 3.93359H17.0962ZM1.11328 14.2832V4.71753L5.92407 9.50297L1.11328 14.2832ZM1.90449 15.0664L6.71338 10.2881L7.53198 11.1024C8.05767 11.6281 8.75659 11.9176 9.5 11.9176C10.2434 11.9176 10.9423 11.6281 11.467 11.1034L12.2866 10.2881L17.0955 15.0664H1.90449ZM17.8867 14.2832L13.0759 9.50297L17.8867 4.71753V14.2832Z" fill="white"/>
</svg>
