<svg width="26" height="26" viewBox="0 0 26 26" fill="none" xmlns="http://www.w3.org/2000/svg">
<path d="M24.9167 14.0608H1.08333C0.485331 14.0608 0 13.5755 0 12.9775C0 12.3795 0.485331 11.8942 1.08333 11.8942H24.9167C25.5147 11.8942 26 12.3795 26 12.9775C26 13.5755 25.5147 14.0608 24.9167 14.0608Z" fill="black"/>
<path d="M24.9167 5.75521H1.08333C0.485331 5.75521 0 5.26987 0 4.67187C0 4.07387 0.485331 3.58854 1.08333 3.58854H24.9167C25.5147 3.58854 26 4.07387 26 4.67187C26 5.26987 25.5147 5.75521 24.9167 5.75521Z" fill="black"/>
<path d="M24.9167 22.3662H1.08333C0.485331 22.3662 0 21.8809 0 21.2829C0 20.6849 0.485331 20.1996 1.08333 20.1996H24.9167C25.5147 20.1996 26 20.6849 26 21.2829C26 21.8809 25.5147 22.3662 24.9167 22.3662Z" fill="black"/>
</svg>
