<svg width="33" height="33" viewBox="0 0 33 33" fill="none" xmlns="http://www.w3.org/2000/svg">
<g clip-path="url(#clip0)">
<path d="M32.3555 25.5765H30.6927V7.39745C30.6927 6.31064 29.8085 5.42648 28.7217 5.42648H23.2895C21.8718 3.13671 19.3367 1.60834 16.4514 1.60834C13.5661 1.60834 11.031 3.13678 9.61325 5.42648H4.27827C3.19146 5.42648 2.30729 6.31064 2.30729 7.39745V25.5765H0.644531C0.288557 25.5765 0 25.8651 0 26.221V29.3439C0 30.473 0.918586 31.3916 2.04768 31.3916H30.9523C32.0814 31.3916 33 30.473 33 29.3439V26.221C33 25.8651 32.7114 25.5765 32.3555 25.5765ZM16.4514 2.8974C20.172 2.8974 23.199 5.92438 23.199 9.645C23.199 13.3656 20.172 16.3926 16.4514 16.3926C12.7307 16.3926 9.7038 13.3656 9.7038 9.645C9.7038 5.92438 12.7308 2.8974 16.4514 2.8974ZM3.59636 7.39745C3.59636 7.02143 3.90225 6.71554 4.27827 6.71554H8.96743C8.61074 7.62362 8.41474 8.61188 8.41474 9.645C8.41474 14.0765 12.02 17.6817 16.4514 17.6817C20.8828 17.6817 24.4881 14.0764 24.4881 9.645C24.4881 8.61188 24.2921 7.62362 23.9354 6.71554H28.7217C29.0977 6.71554 29.4036 7.02143 29.4036 7.39745V25.5765H21.8926C20.777 25.5765 19.8347 26.3328 19.5517 27.3597H13.4483C13.1653 26.3328 12.223 25.5765 11.1074 25.5765H3.59636V7.39745ZM31.7109 29.3439C31.7109 29.7622 31.3706 30.1025 30.9523 30.1025H2.04768C1.62938 30.1025 1.28906 29.7623 1.28906 29.3439V26.8655H11.1074C11.7353 26.8655 12.2461 27.3764 12.2461 28.0042C12.2461 28.3601 12.5347 28.6487 12.8906 28.6487H20.1094C20.4653 28.6487 20.7539 28.3601 20.7539 28.0042C20.7539 27.3764 21.2647 26.8655 21.8926 26.8655H31.7109V29.3439Z" fill="#324C75"/>
<path d="M18.3689 22.451C18.5835 22.5284 18.8233 22.4867 18.999 22.341L24.5756 17.7191C24.6263 17.9427 24.7949 18.1321 25.0313 18.1981C25.0892 18.2143 25.1475 18.222 25.2048 18.222C25.4868 18.2219 25.7458 18.0353 25.8253 17.7505L26.2694 16.158C26.3279 15.9481 26.2764 15.723 26.1327 15.5594C25.9889 15.3958 25.7725 15.3157 25.5566 15.3469L23.9191 15.583C23.5668 15.6338 23.3223 15.9606 23.3732 16.3129C23.4025 16.5164 23.524 16.684 23.6894 16.7794L18.4601 21.1134L13.0007 19.1426C12.8012 19.0706 12.5793 19.1013 12.407 19.2246L6.97647 23.1082C6.68688 23.3153 6.62004 23.7179 6.82713 24.0074C6.95294 24.1833 7.15094 24.2771 7.35191 24.2771C7.48171 24.2771 7.61268 24.238 7.72631 24.1568L12.8815 20.4701L18.3689 22.451Z" fill="#324C75"/>
<path d="M15.8565 13.7137V13.8046C15.8565 14.1605 16.1451 14.4492 16.501 14.4492C16.857 14.4492 17.1456 14.1605 17.1456 13.8046V13.7629C18.5698 13.5826 19.1915 12.6562 19.2966 11.8291C19.4436 10.6716 18.6859 9.55898 17.4539 9.12347C17.3457 9.08525 17.243 9.04857 17.1456 9.01345V6.94244C17.4007 7.02017 17.5774 7.15011 17.6641 7.27373C17.8685 7.56512 18.2705 7.63557 18.5619 7.43106C18.8533 7.22661 18.9238 6.82468 18.7193 6.53323C18.4154 6.1001 17.8644 5.73865 17.1455 5.62154V5.48541C17.1455 5.1295 16.8569 4.84088 16.501 4.84088C16.145 4.84088 15.8564 5.1295 15.8564 5.48541V5.67059C15.7585 5.69231 15.659 5.71828 15.5581 5.74864C14.7494 5.99227 14.1389 6.77796 14.0736 7.65916C14.0091 8.52934 14.4724 9.28544 15.313 9.68183C15.4322 9.73809 15.6189 9.8157 15.8564 9.90832V12.3884C15.5248 12.2893 15.2203 12.1232 15.0225 11.8776C14.7992 11.6004 14.3935 11.5566 14.1162 11.7799C13.839 12.0032 13.7953 12.409 14.0186 12.6862C14.4883 13.2694 15.1816 13.5812 15.8565 13.7137ZM18.0178 11.6667C17.9665 12.0705 17.6532 12.3503 17.1456 12.4568V10.3863C17.8188 10.6751 18.0718 11.2412 18.0178 11.6667ZM15.3592 7.75455C15.383 7.43402 15.5912 7.12858 15.8565 7.0105V8.51297C15.4149 8.30195 15.3422 7.98433 15.3592 7.75455Z" fill="#324C75"/>
</g>
<defs>
<clipPath id="clip0">
<rect width="33" height="33" fill="white"/>
</clipPath>
</defs>
</svg>
