<svg width="35" height="32" viewBox="0 0 35 32" fill="none" xmlns="http://www.w3.org/2000/svg">
<path d="M29.4674 20.2824V8.81727C29.4674 8.46121 29.1488 8.21521 28.7593 8.21521H26.0191C25.6296 8.21521 25.2898 8.46121 25.2898 8.81727V19.1624C24.8366 19.1753 24.3834 19.2271 23.9444 19.3242V12.1966C23.9444 11.8405 23.6116 11.5816 23.2222 11.5816H20.482C20.0925 11.5816 19.7668 11.8341 19.7668 12.1966V21.862C18.9242 22.9431 18.471 24.2443 18.4781 25.5779C18.4781 29.1256 21.6219 31.9999 25.4951 31.9999C29.3753 31.9999 32.5192 29.1256 32.5192 25.5844C32.5192 23.461 31.3792 21.48 29.4674 20.2824ZM26.7059 9.50997H28.0512V19.5961C27.6193 19.4408 27.1662 19.3242 26.7059 19.2595V9.50997ZM21.1829 12.8763H22.5283V19.7709C22.0539 19.9716 21.6007 20.2176 21.1829 20.509V12.8763ZM30.3242 28.1869C29.3116 29.7471 27.4777 30.6987 25.5022 30.6987C22.4079 30.6987 19.9013 28.4005 19.9013 25.5779C19.9013 23.5063 21.2679 21.6354 23.3638 20.8456C23.4488 20.8326 23.5267 20.8003 23.5975 20.7614C24.2064 20.5543 24.8578 20.4507 25.5093 20.4507C25.658 20.4507 25.7996 20.4572 25.9483 20.4701H25.9553C26.805 20.5284 27.6335 20.7679 28.3628 21.1693C31.0251 22.6129 31.9032 25.7527 30.3242 28.1869Z" fill="#324C75"/>
<path d="M25.5091 25.0536C25.0135 25.0536 24.6169 24.6911 24.6169 24.2379C24.6169 23.7848 25.0064 23.4223 25.502 23.4158C25.9977 23.4158 26.3942 23.7848 26.3942 24.2315C26.3942 24.5875 26.7128 24.8789 27.1023 24.8789C27.4988 24.8789 27.8174 24.594 27.8245 24.2315C27.8245 23.364 27.2439 22.5807 26.3588 22.2634V21.7261C26.3588 21.3701 26.0402 21.0787 25.6507 21.0787C25.2613 21.0787 24.9427 21.3701 24.9427 21.7261V22.1922C23.7106 22.4835 22.9671 23.6359 23.2858 24.7623C23.5407 25.6946 24.4541 26.3419 25.502 26.3419C25.9906 26.3419 26.3871 26.7109 26.3871 27.1576C26.3871 27.6043 25.9835 27.9669 25.495 27.9669C25.0064 27.9669 24.6099 27.5978 24.6099 27.1512C24.6099 26.7951 24.2912 26.5038 23.9018 26.5038C23.5124 26.5038 23.2008 26.7886 23.2079 27.1447V27.1512C23.215 28.1093 23.923 28.9509 24.9356 29.1904V29.4817C24.9356 29.8378 25.2542 30.1291 25.6436 30.1291C26.0331 30.1291 26.3517 29.8378 26.3517 29.4817V29.1257C27.5413 28.6984 28.1219 27.4748 27.6617 26.3937C27.3147 25.5845 26.4579 25.0536 25.5091 25.0536Z" fill="#324C75"/>
<path d="M12.1195 16.7607H9.35797C8.96853 16.7607 8.6499 17.052 8.6499 17.4081V27.5719C8.6499 27.928 8.96853 28.2193 9.35797 28.2193H12.1195C12.5089 28.2193 12.8275 27.928 12.8275 27.5719V17.4081C12.8275 17.052 12.5089 16.7607 12.1195 16.7607ZM11.4114 26.9893H10.066V18.0554H11.4114V26.9893Z" fill="#324C75"/>
<path d="M17.7134 15.2717H14.952C14.5625 15.2717 14.2439 15.563 14.2439 15.919V27.6366C14.2439 27.9927 14.5625 28.284 14.952 28.284H17.7134C18.1029 28.284 18.4215 27.9927 18.4215 27.6366V15.919C18.4215 15.563 18.1029 15.2717 17.7134 15.2717ZM17.0054 26.9892H15.66V16.5664H17.0054V26.9892Z" fill="#324C75"/>
<path d="M6.52571 22.3281H3.76422C3.37478 22.3281 3.05615 22.6194 3.05615 22.9755V27.5719C3.05615 27.928 3.37478 28.2193 3.76422 28.2193H6.52571C6.91515 28.2193 7.23378 27.928 7.23378 27.5719V22.9755C7.23378 22.6194 6.91515 22.3281 6.52571 22.3281ZM5.81764 26.9893H4.4723V23.6229H5.81764V26.9893Z" fill="#324C75"/>
<path d="M29.3611 0L24.5179 0.0064738C24.1285 0 23.8099 0.291321 23.8028 0.64738C23.7957 1.00344 24.1143 1.29476 24.5038 1.30123C24.5109 1.30123 24.5109 1.30123 24.5179 1.30123L27.6547 1.29476L19.9721 8.29294L17.2885 5.85879C17.154 5.74226 16.9699 5.684 16.7858 5.69047C16.6017 5.684 16.4176 5.74226 16.2831 5.85879L2.68807 18.2885C2.41192 18.541 2.41192 18.9488 2.68807 19.1948C2.8226 19.3178 2.99962 19.3826 3.1908 19.3826C3.38198 19.3826 3.559 19.3178 3.69353 19.1948L16.7929 7.21829L19.4765 9.69128C19.6039 9.82076 19.788 9.89197 19.9792 9.89844C20.1704 9.89197 20.3474 9.81428 20.4819 9.69128L28.6531 2.21404L28.646 5.09488C28.646 5.45741 28.9575 5.74874 29.3541 5.76168C29.7506 5.75521 30.0621 5.45741 30.0621 5.09488L30.0692 0.653854C30.0692 0.297795 29.7506 0 29.3611 0Z" fill="#324C75"/>
</svg>
