<svg width="40" height="40" viewBox="0 0 40 40" fill="none" xmlns="http://www.w3.org/2000/svg">
<g clip-path="url(#clip0)">
<path d="M26.0896 9.95426C27.7402 13.393 31.8666 14.906 35.3741 13.2554C38.8816 11.6048 40.3258 7.4784 38.6753 3.97094C37.0247 0.532245 32.8983 -0.980781 29.3908 0.669792C26.4335 2.04527 24.8517 5.34642 25.6082 8.57879L21.2755 11.6736L16.9427 8.57879C17.8368 4.865 15.5672 1.15121 11.8535 0.257149C8.13966 -0.636911 4.42587 1.7014 3.53181 5.41519C2.63775 9.0602 4.97606 12.8428 8.68985 13.6681C11.8535 14.4246 15.1546 12.8428 16.5301 9.88549L20.6565 12.8428V16.6253C19.3498 14.906 17.3554 13.8744 15.1546 13.8744H13.7791C13.3665 13.8744 13.0914 14.1495 13.0914 14.5621C13.0914 18.3447 16.1862 21.4395 19.9688 21.4395H20.6565V22.815C16.9427 23.0213 13.7103 24.8782 12.4036 27.6291C12.3349 27.6291 12.1973 27.6291 12.1285 27.6291H10.2717C10.2717 27.2165 9.99656 26.9414 9.58391 26.9414H4.082C3.66936 26.9414 3.39427 27.2165 3.39427 27.6291H0.643311V29.0046H3.39427V35.882H0.643311V37.2575H3.39427C3.39427 37.6701 3.66936 37.9452 4.082 37.9452H9.58391C9.99656 37.9452 10.2717 37.6701 10.2717 37.2575V36.9824L15.4297 39.1144C18.2494 40.2835 21.3442 40.2835 24.164 39.1832L34.7551 35.1943C35.3741 34.988 35.9243 34.5065 36.1306 33.8876C36.4057 33.2686 36.4057 32.5809 36.1994 31.8931C35.9243 31.2742 35.4429 30.724 34.8239 30.5177C34.205 30.2426 33.5172 30.2426 32.8983 30.5177L30.7663 31.4117C30.9038 30.9991 30.9038 30.724 30.9038 30.3801C30.9038 26.3912 26.9837 23.0901 21.9632 22.815V21.4395H22.6509C26.4335 21.4395 29.5283 18.3447 29.5283 14.5621C29.5283 14.1495 29.2532 13.8744 28.8406 13.8744H27.4651C25.2644 13.8744 23.2699 14.906 21.9632 16.6253V12.8428L26.0896 9.95426ZM32.2793 1.49508C35.3053 1.49508 37.7812 3.97094 37.7812 6.99699C37.7812 10.023 35.3053 12.4989 32.2793 12.4989C29.2532 12.4989 26.7774 10.023 26.7774 6.99699C26.7774 3.97094 29.2532 1.49508 32.2793 1.49508ZM10.2717 12.4989C7.2456 12.4989 4.76974 10.023 4.76974 6.99699C4.76974 3.97094 7.2456 1.49508 10.2717 1.49508C13.2977 1.49508 15.7736 3.97094 15.7736 6.99699C15.7736 10.023 13.2977 12.4989 10.2717 12.4989ZM19.9 20.064C17.149 20.064 14.8107 18.0008 14.4669 15.2499H15.0858C17.8368 15.2499 20.1751 17.3131 20.519 20.064H19.9ZM8.89618 36.5698H4.76974V28.3169H8.89618V36.5698ZM33.4484 31.7556C33.7235 31.618 33.9986 31.618 34.2737 31.7556C34.5488 31.8931 34.7551 32.0994 34.8927 32.3745C35.0302 32.6496 35.0302 32.9935 34.8927 33.2686C34.7551 33.5437 34.5488 33.75 34.2737 33.8876L23.6826 37.9452C21.2067 38.9081 18.387 38.8393 15.9111 37.8765L10.2717 35.5381V29.0046H11.991C14.2605 29.0046 16.5301 29.5548 18.5933 30.5864C19.281 30.9303 20.0375 31.0678 20.7941 31.0678H26.0896C26.6398 31.0678 27.1213 31.5493 27.1213 32.0994C27.1213 32.5809 26.7774 32.9935 26.296 33.1311C26.2272 33.1311 26.0896 33.1311 26.0209 33.1311H17.8368V34.5065H26.0209C26.0209 34.5065 26.0209 34.5065 26.0896 34.5065C26.0896 34.5065 26.0896 34.5065 26.1584 34.5065C26.7086 34.5065 27.2588 34.369 27.7402 34.1627L33.4484 31.7556ZM29.5283 30.3801C29.5283 30.9303 29.3908 31.4805 29.2532 32.0307L28.4967 32.3745C28.4967 32.3058 28.4967 32.237 28.4967 32.0994C28.4967 30.7927 27.3963 29.6924 26.0896 29.6924H20.7253C20.1751 29.6924 19.6249 29.5548 19.1435 29.3485C17.4241 28.5232 15.636 27.973 13.7791 27.7667C15.1546 25.6347 18.0431 24.1905 21.2067 24.1905C25.8145 24.1905 29.5283 26.9414 29.5283 30.3801ZM27.4651 15.2499H28.0841C27.7402 18.0008 25.4019 20.064 22.6509 20.064H22.032C22.3759 17.3131 24.7142 15.2499 27.4651 15.2499Z" fill="#324C75"/>
<path d="M34.2738 7.89104C34.1363 7.40962 33.7236 6.9282 33.311 6.72188L32.0043 6.03414C31.7292 5.89659 31.5916 5.55272 31.7292 5.27763C31.7292 5.07131 31.9355 4.93376 32.2106 4.93376H32.4169C32.692 4.93376 32.9671 5.20886 32.9671 5.55272V5.6215H34.3426V5.55272C34.3426 4.72744 33.7924 3.97093 32.9671 3.69583V2.87054H31.5916V3.62706C30.56 3.97093 30.0098 5.07131 30.2849 6.10291C30.4225 6.58433 30.8351 7.06575 31.2478 7.27207L32.5545 7.95981C32.8296 8.09736 32.9671 8.44123 32.8296 8.71632C32.7608 8.92264 32.5545 9.06019 32.2794 9.06019H32.0731C31.7292 9.06019 31.4541 8.7851 31.4541 8.44123V8.37245H30.0786V8.44123C30.2162 9.33529 30.7664 10.0918 31.5916 10.3669V11.1234H32.9671V10.3669C33.9987 10.023 34.5489 8.92264 34.2738 7.89104Z" fill="#324C75"/>
<path d="M36.4058 6.3092H35.0303V7.68468H36.4058V6.3092Z" fill="#324C75"/>
<path d="M29.5283 6.3092H28.1528V7.68468H29.5283V6.3092Z" fill="#324C75"/>
<path d="M12.335 5.6215V5.55272C12.335 4.65866 11.7848 3.90215 10.9595 3.62706V2.87054H9.58407V3.62706C8.55246 3.97093 8.00227 5.07131 8.27737 6.10291C8.41491 6.58433 8.82756 7.06575 9.2402 7.27207L10.5469 7.95981C10.822 8.09736 10.9595 8.44123 10.822 8.71632C10.7532 8.92264 10.5469 9.06019 10.2718 9.06019H10.0655C9.72162 9.06019 9.44652 8.7851 9.44652 8.44123V8.37245H8.07104V8.44123C8.07104 9.26651 8.62124 10.023 9.44652 10.2981V11.1234H10.822V10.3669C11.8536 10.023 12.4038 8.92264 12.1287 7.89104C11.9912 7.40962 11.5785 6.9282 11.1659 6.72188L9.85917 6.03414C9.58407 5.89659 9.44652 5.55272 9.58407 5.27763C9.72162 5.07131 9.92794 4.93376 10.203 4.93376H10.4094C10.6845 4.93376 10.9595 5.20886 10.9595 5.55272V5.6215H12.335Z" fill="#324C75"/>
<path d="M14.3982 6.3092H13.0227V7.68468H14.3982V6.3092Z" fill="#324C75"/>
<path d="M7.52074 6.3092H6.14526V7.68468H7.52074V6.3092Z" fill="#324C75"/>
<path d="M7.52074 33.8188H6.14526V35.1943H7.52074V33.8188Z" fill="#324C75"/>
</g>
<defs>
<clipPath id="clip0">
<rect width="40" height="40" fill="white"/>
</clipPath>
</defs>
</svg>
