<svg width="35" height="34" viewBox="0 0 35 34" fill="none" xmlns="http://www.w3.org/2000/svg">
<path d="M30.9237 14.7189C30.9237 14.0393 30.3546 13.4864 29.655 13.4864H28.0299V5.35168H29.155C29.4144 5.35168 29.6488 5.21229 29.7668 4.98791C29.8848 4.76352 29.8637 4.4973 29.7117 4.29316L26.7214 0.276117C26.5931 0.103992 26.3861 0.000796875 26.1674 0C25.9514 0.000464844 25.7409 0.100937 25.6113 0.271934L22.5691 4.28871C22.4146 4.49258 22.3917 4.7596 22.5093 4.98545C22.6269 5.21136 22.8618 5.35175 23.1224 5.35175H24.3021V13.4865H21.642C20.9425 13.4865 20.3733 14.0393 20.3733 14.7189V15.8625C20.3733 16.1378 20.4678 16.3915 20.6255 16.5968C20.4679 16.8022 20.3733 17.0559 20.3733 17.3312V18.4747C20.3733 18.75 20.4678 19.0037 20.6255 19.2091C20.4679 19.4145 20.3733 19.6681 20.3733 19.9435V21.087C20.3733 21.1679 20.3824 21.2467 20.398 21.3233H19.391V10.5577H20.5162C20.7755 10.5577 21.01 10.4183 21.128 10.194C21.246 9.96957 21.2248 9.70335 21.0728 9.49921L18.0826 5.4823C17.9545 5.31011 17.7475 5.20685 17.5287 5.20598C17.5278 5.20598 17.5269 5.20598 17.5259 5.20598C17.3083 5.20598 17.1015 5.30745 16.9725 5.47792L13.9303 9.4947C13.7758 9.69857 13.7529 9.96558 13.8705 10.1914C13.988 10.4173 14.223 10.5577 14.4836 10.5577H15.6632V21.323H13.3762C12.6767 21.323 12.1076 21.8759 12.1076 22.5554V23.2277C11.6794 23.0505 11.2255 22.9208 10.7521 22.8485V16.1226H11.8772C12.1365 16.1226 12.3709 15.9832 12.4889 15.7589C12.607 15.5345 12.5859 15.2683 12.4339 15.0641L9.44379 11.0473C9.31569 10.8752 9.10869 10.7718 8.89001 10.7709C8.67092 10.7699 8.46331 10.8716 8.33357 11.0428L5.2913 15.0597C5.13688 15.2635 5.11404 15.5306 5.23162 15.7564C5.34927 15.9822 5.58415 16.1226 5.84474 16.1226H7.02435V17.8633C7.02435 18.1384 7.2539 18.3613 7.53704 18.3613C7.82019 18.3613 8.04974 18.1384 8.04974 17.8633V15.7939C8.04974 15.4259 7.74151 15.1265 7.36273 15.1265H6.51404L8.88495 11.996L11.2153 15.1265H10.414C10.0352 15.1265 9.727 15.4259 9.727 15.7939V22.7829C9.14274 22.7949 8.57973 22.8914 8.05008 23.0608V20.1875C8.05008 19.9124 7.82053 19.6895 7.53738 19.6895C7.25424 19.6895 7.02469 19.9124 7.02469 20.1875V23.5006C5.26683 24.4635 4.07642 26.2937 4.07642 28.3899C4.07642 31.4833 6.6671 33.9999 9.85149 33.9999C11.2145 33.9999 12.4678 33.5378 13.4567 32.7678H29.655C30.3545 32.7678 30.9237 32.2149 30.9237 31.5353V30.3918C30.9237 30.1165 30.8291 29.8629 30.6714 29.6575C30.8291 29.4521 30.9237 29.1985 30.9237 28.9232V27.7797C30.9237 27.5043 30.8291 27.2507 30.6714 27.0453C30.8291 26.8399 30.9237 26.5862 30.9237 26.3109V25.1674C30.9237 24.8921 30.8291 24.6384 30.6714 24.433C30.8291 24.2277 30.9237 23.974 30.9237 23.6987V22.5551C30.9237 22.2798 30.8291 22.0262 30.6715 21.8208C30.8291 21.6154 30.9237 21.3618 30.9237 21.0865V19.943C30.9237 19.6677 30.8291 19.414 30.6714 19.2086C30.8291 19.0032 30.9237 18.7495 30.9237 18.4742V17.3308C30.9237 17.0554 30.8291 16.8018 30.6714 16.5964C30.8291 16.391 30.9237 16.1373 30.9237 15.862V14.7189ZM23.7915 4.35565L26.1624 1.22513L28.4928 4.35565H27.6915C27.3127 4.35565 27.0045 4.65508 27.0045 5.02303V13.4865H25.3276V5.02303C25.3276 4.65508 25.0193 4.35565 24.6405 4.35565H23.7915ZM15.1528 9.56164L17.5237 6.43111L19.854 9.56164H19.0527C18.6739 9.56164 18.3656 9.86106 18.3656 10.229V21.323H16.6887V10.229C16.6887 9.86106 16.3805 9.56164 16.0017 9.56164H15.1528ZM9.85149 33.0039C7.2325 33.0039 5.10181 30.9341 5.10181 28.3899C5.10181 25.8458 7.2325 23.776 9.85149 23.776C12.4705 23.776 14.6012 25.8458 14.6012 28.3899C14.6012 30.9341 12.4705 33.0039 9.85149 33.0039ZM21.6327 31.5355C21.6327 31.6658 21.5236 31.7718 21.3895 31.7718H14.4556C14.833 31.2882 15.1306 30.7432 15.3318 30.1557H21.3895C21.5236 30.1557 21.6327 30.2617 21.6327 30.392V31.5355ZM21.6327 26.3111C21.6327 26.4414 21.5236 26.5474 21.3895 26.5474H19.4141C19.1309 26.5474 18.9014 26.7703 18.9014 27.0455C18.9014 27.3206 19.1309 27.5435 19.4141 27.5435H21.3895C21.5236 27.5435 21.6327 27.6496 21.6327 27.7799V28.9234C21.6327 29.0537 21.5236 29.1597 21.3895 29.1597H15.5708C15.6066 28.9079 15.6266 28.6512 15.6266 28.39C15.6266 28.1022 15.603 27.8198 15.5597 27.5436H17.0215C17.3046 27.5436 17.5342 27.3207 17.5342 27.0455C17.5342 26.7704 17.3046 26.5475 17.0215 26.5475H15.3052C15.0936 25.9582 14.7843 25.4131 14.3949 24.9314H21.3895C21.5236 24.9314 21.6327 25.0375 21.6327 25.1678V26.3111ZM21.6327 23.6989C21.6327 23.8292 21.5236 23.9353 21.3895 23.9353H13.3764C13.3684 23.9353 13.3608 23.9337 13.3529 23.9329C13.2871 23.884 13.2202 23.8365 13.1522 23.7903C13.14 23.7621 13.1331 23.7313 13.1331 23.6989V22.5554C13.1331 22.4251 13.2422 22.3191 13.3764 22.3191H21.3895C21.5236 22.3191 21.6327 22.4251 21.6327 22.5554V23.6989ZM29.8983 31.5355C29.8983 31.6658 29.7891 31.7718 29.655 31.7718H22.6341C22.6495 31.6952 22.6581 31.6163 22.6581 31.5355V30.3919C22.6581 30.311 22.649 30.2322 22.6335 30.1557H29.655C29.7891 30.1557 29.8983 30.2617 29.8983 30.3919V31.5355ZM29.8983 28.9233C29.8983 29.0536 29.7891 29.1596 29.655 29.1596H22.6335C22.649 29.0831 22.6581 29.0043 22.6581 28.9233V27.7798C22.6581 27.6988 22.649 27.62 22.6335 27.5434H29.655C29.7891 27.5434 29.8983 27.6495 29.8983 27.7798V28.9233ZM29.8983 26.3111C29.8983 26.4414 29.7891 26.5474 29.655 26.5474H22.6335C22.649 26.4709 22.6581 26.3921 22.6581 26.3111V25.1676C22.6581 25.0867 22.649 25.0079 22.6335 24.9313H29.655C29.7891 24.9313 29.8983 25.0373 29.8983 25.1676V26.3111ZM29.8983 21.0868C29.8983 21.2169 29.7894 21.3228 29.6555 21.323C29.6553 21.323 29.6552 21.323 29.6551 21.323H28.3692C28.0859 21.323 27.8565 21.546 27.8565 21.8211C27.8565 22.0962 28.0859 22.3191 28.3692 22.3191H29.6537C29.6541 22.3191 29.6546 22.3192 29.655 22.3192H29.6554C29.7893 22.3195 29.8982 22.4253 29.8982 22.5555V23.699C29.8982 23.8293 29.7891 23.9353 29.6549 23.9353H22.6335C22.649 23.8588 22.6581 23.78 22.6581 23.699V22.5555C22.6581 22.4746 22.6495 22.3957 22.6341 22.3191H25.9766C26.2598 22.3191 26.4893 22.0962 26.4893 21.8211C26.4893 21.546 26.2598 21.323 25.9766 21.323H21.642C21.6419 21.323 21.6418 21.323 21.6416 21.323C21.5077 21.3228 21.3988 21.2169 21.3988 21.0868V19.9433C21.3988 19.813 21.508 19.7069 21.6421 19.7069H29.655C29.7891 19.7069 29.8983 19.813 29.8983 19.9433V21.0868ZM29.8983 18.4745C29.8983 18.6048 29.7891 18.7109 29.655 18.7109H21.642C21.5079 18.7109 21.3988 18.6048 21.3988 18.4745V17.3311C21.3988 17.2008 21.5079 17.0948 21.642 17.0948H29.655C29.7891 17.0948 29.8983 17.2008 29.8983 17.3311V18.4745ZM29.8983 15.8624C29.8983 15.9927 29.7891 16.0987 29.655 16.0987H21.642C21.5079 16.0987 21.3988 15.9927 21.3988 15.8624V14.7189C21.3988 14.5886 21.5079 14.4825 21.642 14.4825H29.655C29.7891 14.4825 29.8983 14.5886 29.8983 14.7189V15.8624Z" fill="#324C75"/>
<path d="M10.4148 27.8919H9.28789C9.00844 27.8919 8.78101 27.671 8.78101 27.3995C8.78101 27.128 9.00837 26.9072 9.28789 26.9072H11.2733C11.5565 26.9072 11.786 26.6842 11.786 26.4091C11.786 26.134 11.5565 25.9111 11.2733 25.9111H10.364V25.3926C10.364 25.1175 10.1345 24.8946 9.85131 24.8946C9.56816 24.8946 9.33861 25.1175 9.33861 25.3926V25.9111H9.28789C8.44304 25.9111 7.75562 26.5788 7.75562 27.3995C7.75562 28.2202 8.44297 28.888 9.28789 28.888H10.4147C10.6942 28.888 10.9216 29.1089 10.9216 29.3803C10.9216 29.6519 10.6942 29.8727 10.4147 29.8727H8.42936C8.14622 29.8727 7.91667 30.0957 7.91667 30.3708C7.91667 30.6459 8.14622 30.8688 8.42936 30.8688H9.33861V31.3873C9.33861 31.6624 9.56816 31.8853 9.85131 31.8853C10.1345 31.8853 10.364 31.6624 10.364 31.3873V30.8688H10.4147C11.2596 30.8688 11.947 30.2011 11.947 29.3803C11.947 28.5596 11.2596 27.8919 10.4148 27.8919Z" fill="#324C75"/>
</svg>
